<svg xmlns="http://www.w3.org/2000/svg" xmlns:xlink="http://www.w3.org/1999/xlink" version="1.1" x="0px" y="0px" viewBox="0 0 100 125" enable-background="new 0 0 100 100" xml:space="preserve"><g><path d="M75.547,95.966c-0.058,0-0.117-0.006-0.176-0.019c-0.44-0.097-0.718-0.532-0.622-0.972C81.186,65.722,72.3,44,72.21,43.784   c-0.081-0.193-0.085-0.41-0.011-0.606l8.84-23.257c0.16-0.421,0.633-0.63,1.053-0.473c0.421,0.16,0.633,0.632,0.473,1.053   l-8.728,22.962c1.074,2.791,8.638,23.993,2.506,51.863C76.259,95.707,75.922,95.966,75.547,95.966z"/></g><path d="M30.205,44.786l-4.819-4.819c-0.319-0.319-0.835-0.319-1.154,0c-0.319,0.319-0.319,0.835,0,1.154l3.536,3.536H12.105  c-0.451,0-0.816,0.366-0.816,0.816s0.366,0.816,0.816,0.816h15.443l-3.425,3.426c-0.319,0.319-0.319,0.835,0,1.154  c0.159,0.159,0.368,0.239,0.577,0.239s0.418-0.08,0.577-0.239l4.928-4.929C30.523,45.621,30.523,45.105,30.205,44.786z"/><path d="M46.856,33.87c0.247-0.072,0.446-0.257,0.537-0.498L57.457,6.444c0.158-0.422-0.057-0.893-0.479-1.05  s-0.893,0.056-1.05,0.479L45.998,32.44c-1.843,0.674-9.391,3.962-9.932,12.747c-0.517,8.39,4.43,12.143,7.821,13.237  c0.043,0.023,0.078,0.055,0.126,0.07c0.023,0.007,0.158,0.047,0.361,0.098c0.79,3.304,5.003,22.202,1.292,34.464  c-0.131,0.431,0.113,0.887,0.545,1.017c0.079,0.024,0.158,0.035,0.237,0.035c0.35,0,0.674-0.227,0.78-0.58  c3.677-12.15,0.001-29.898-1.109-34.66c0.199,0.014,0.403,0.024,0.615,0.024c0.762,0,1.586-0.106,2.335-0.427  c0.414-0.177,0.606-0.657,0.429-1.072c-0.178-0.415-0.658-0.606-1.072-0.429c-1.006,0.431-2.289,0.311-3.109,0.161  c-0.042-0.015-0.081-0.034-0.126-0.043c-2.811-0.527-7.996-3.671-7.496-11.796C38.236,36.489,46.504,33.973,46.856,33.87z"/><path d="M57.72,58.176c-0.178-0.414-0.658-0.605-1.072-0.429c-0.979,0.419-2.219,0.316-3.041,0.172  c-0.02-0.005-0.037-0.016-0.058-0.02c-3.365-0.631-8.937-3.003-8.448-11.801c0.486-8.744,9.304-10.595,9.679-10.669  c0.441-0.088,0.729-0.516,0.642-0.958c-0.087-0.442-0.513-0.73-0.957-0.643c-0.104,0.02-10.437,2.155-10.995,12.18  c-0.522,9.4,5.302,12.342,8.747,13.259c0.006,0.002,0.01,0.007,0.016,0.009c0.028,0.009,0.21,0.065,0.497,0.132  c0.79,3.307,5.002,22.203,1.292,34.465c-0.131,0.431,0.113,0.887,0.545,1.017c0.079,0.024,0.158,0.035,0.237,0.035  c0.35,0,0.674-0.227,0.78-0.58c3.684-12.173-0.013-29.964-1.114-34.685c0.158,0.009,0.319,0.015,0.484,0.015  c0.762,0,1.586-0.106,2.335-0.427C57.706,59.07,57.898,58.59,57.72,58.176z"/><text x="0" y="115" fill="#000000" font-size="5px" font-weight="bold" font-family="'Helvetica Neue', Helvetica, Arial-Unicode, Arial, Sans-serif">Created by Cards Against Humanity</text><text x="0" y="120" fill="#000000" font-size="5px" font-weight="bold" font-family="'Helvetica Neue', Helvetica, Arial-Unicode, Arial, Sans-serif">from the Noun Project</text></svg>